<svg xmlns="http://www.w3.org/2000/svg" xmlns:xlink="http://www.w3.org/1999/xlink" xmlns:v="https://vecta.io/nano" viewBox="0 0 1000 1000"><style>.C,.G,.D,.F{mix-blend-mode:multiply}.A{isolation:isolate}</style><defs><linearGradient id="A" x1="441.91" y1="476.04" x2="450.54" y2="333.33" gradientUnits="userSpaceOnUse"><stop offset="0"></stop><stop offset=".61" stop-color="#858585" stop-opacity=".48"></stop><stop offset=".8" stop-color="#fff" stop-opacity="0"></stop></linearGradient><linearGradient id="B" x1="282.6" y1="432.55" x2="409.61" y2="432.55" gradientUnits="userSpaceOnUse"><stop offset="0"></stop><stop offset=".43" stop-color="#858585" stop-opacity=".48"></stop><stop offset=".8" stop-color="#fff" stop-opacity="0"></stop></linearGradient><linearGradient id="C" x1="544.895" y1="468.678" x2="687.528" y2="478.503" xlink:href="#A"></linearGradient><linearGradient id="D" x1="589.718" y1="309.748" x2="588.654" y2="436.743" xlink:href="#B"></linearGradient></defs><g class="A"><path d="M481.86 404.01l.31 106.5h-55.59l-.24-47.25-.09-17.5-.29-57.68s-1.34-14.74-13.33-25.09c-6.31-5.45-15.57-9.68-29.15-9.89 0 0-4.68-.68-11.27.12h0c-6.04.73-13.67 2.7-20.75 7.57-7.41 5.09-14.2 13.35-17.94 26.66 0 0-12.49 34.98 13.12 58.72 0 0 27.56 23.89 62.98 4.64l1.05-.58v56.22s-14.29 5.07-33.95 5.56c-25.65.64-60.45-6.51-84.64-42.86a60.78 60.78 0 0 1-1.34-2.06s-4.12-6.96-8.12-18.61c-7.86-22.89-15.26-63.88 9.99-105.69 0 0 38.73-69.33 128.68-38.1 0 0 12.84 3.75 26.73 14.79 14.12 11.21 29.32 29.93 33.23 59.87h0c.98 7.5 1.26 15.7.62 24.65z" fill="#2ac0eb"></path><path class="C" d="M481.24 379.35v43.57s-36.27 50.72-54.9 40.34l-.38-75.18s-1.34-14.74-13.33-25.09l35.38-43.51c14.12 11.21 29.32 29.93 33.23 59.87z" fill="url(#A)" opacity=".5"></path><path d="M425.65 445.86v64.96h55.59V404.63s-13.43 34.67-55.59 41.23z" fill="#2ac0eb"></path><path class="D" d="M409.61 450.81c-5.96 17.8-20.02 41.95-32.9 61.2-25.65.64-60.45-6.51-84.64-42.86a60.78 60.78 0 0 1-1.34-2.06s-4.12-6.96-8.12-18.61c22.97-102.91 88.78-95.36 89.6-95.26-6.04.73-13.67 2.7-20.75 7.57-7.41 5.09-14.2 13.35-17.94 26.66 0 0-12.49 34.98 13.12 58.72 0 0 27.56 23.89 62.98 4.64z" opacity=".5" fill="url(#B)"></path><path d="M616.55 509.26l-106.5-.58.47-55.59 47.25.15 17.5.06 57.68.19s14.75-1.22 25.2-13.12c5.51-6.26 9.81-15.49 10.14-29.06 0 0 .72-4.68-.02-11.27h0c-.68-6.05-2.58-13.7-7.4-20.82-5.03-7.45-13.23-14.31-26.51-18.17 0 0-34.87-12.79-58.82 12.62 0 0-24.12 27.36-5.17 62.93.18.35.38.7.57 1.05l-56.22-.47s-4.95-14.33-5.27-33.99c-.42-25.66 7.02-60.39 43.57-84.28l2.07-1.33s7-4.06 18.68-7.96c22.96-7.67 64.01-14.72 105.6 10.88 0 0 69.01 39.31 37.02 128.99 0 0-3.86 12.8-15.02 26.61-11.32 14.02-30.18 29.07-60.15 32.73h0c-7.5.92-15.7 1.12-24.65.42z" fill="#8bdd28"></path><path class="F" d="M641.21 508.84l-43.57-.37s-50.41-36.69-39.88-55.24l75.18.25s14.75-1.22 25.2-13.12l43.21 35.74c-11.32 14.02-30.18 29.07-60.15 32.73z" opacity=".5" fill="url(#C)"></path><path d="M575.18,452.69l-64.96-.55-.47,55.59,106.18.89s-34.55-13.72-40.76-55.94Z" fill="#8bdd28"></path><path class="G" d="M570.36 436.61c-17.75-6.11-41.78-20.37-60.92-33.41-.42-25.66 7.02-60.39 43.57-84.28l2.07-1.33s7-4.06 18.68-7.96c102.71 23.83 94.61 89.58 94.51 90.4-.68-6.05-2.58-13.7-7.4-20.81-5.03-7.45-13.23-14.31-26.51-18.17 0 0-34.87-12.79-58.82 12.62 0 0-24.12 27.36-5.17 62.93z" opacity=".5" fill="url(#D)"></path><g fill="#fff"><path d="M293.98 605.75c.4.12.59.49.59 1.1v8.49c0 .67-.64 1-1.92 1h-4.47c-3.1 0-5.8-.85-8.08-2.56-2.28-1.7-3.94-4.02-4.97-6.94-1.4 1.95-3.3 3.57-5.7 4.88s-5.07 1.96-7.99 1.96-5.55-.46-8.08-1.37c-2.52-.91-4.73-2.21-6.62-3.88s-3.39-3.71-4.52-6.11-1.69-5.13-1.69-8.17.44-5.76 1.32-8.35a17.79 17.79 0 0 1 4.06-6.71c1.82-1.89 4.12-3.36 6.89-4.43s6.01-1.6 9.72-1.6h21.08v23c0 3.53.56 5.99 1.69 7.39 1.12 1.4 3.03 2.1 5.7 2.1h1.64c.49 0 .93.06 1.32.18zm-34.08-54.67v10.4h-10.4v-10.4h10.4zm5.61 51.75c1.12-.37 2.11-.94 2.97-1.73s1.55-1.83 2.1-3.1.82-2.8.82-4.56v-9.95h-8.85c-3.22 0-5.64.96-7.25 2.88s-2.42 4.52-2.42 7.8c0 3.1.79 5.42 2.37 6.94s3.86 2.28 6.84 2.28a10.83 10.83 0 0 0 3.42-.55zm9.99-51.75v10.4H265v-10.4h10.5z"></path><path d="M336.37 597.08c0-4.87-.94-8.4-2.83-10.59s-4.59-3.29-8.12-3.29h-28.66v-10.13l21.9-21.99h13.78l-21.63 21.99h14.51c8.46 0 14.57 1.98 18.34 5.93s5.66 9.67 5.66 17.16v1.46c.06 1.46.4 2.69 1 3.7.61 1 1.37 1.83 2.28 2.46a8.84 8.84 0 0 0 3.06 1.37c1.13.27 2.24.41 3.33.41h1.92c.49 0 .93.06 1.32.18.4.12.59.49.59 1.1v8.49c0 .67-.64 1-1.92 1h-1.92c-.85 0-1.75-.14-2.69-.41a13.02 13.02 0 0 1-2.74-1.14 10.66 10.66 0 0 1-2.37-1.78c-.7-.7-1.23-1.51-1.6-2.42h-.37c-.12.67-.37 1.58-.73 2.74s-.85 2.16-1.46 3.01h-54.39c-1.28 0-1.92-.33-1.92-1v-8.49c0-.61.2-.97.59-1.1a4.58 4.58 0 0 1 1.32-.18h43.71v-8.49z"></path><path d="M359 615.33v-8.49c0-.61.2-.97.59-1.1a4.58 4.58 0 0 1 1.32-.18h12.23c.61 0 1.28-.11 2.01-.32s1.41-.59 2.05-1.14 1.17-1.28 1.6-2.19.64-2.07.64-3.47v-20.99h12.96v19.17c0 1.58.23 2.94.68 4.06.46 1.12 1.05 2.05 1.78 2.78s1.57 1.26 2.51 1.6c.94.33 1.87.5 2.78.5h4.11c.49 0 .93.06 1.32.18.4.12.59.49.59 1.1v8.49c0 .67-.64 1-1.92 1h-4.11c-1.16 0-2.31-.18-3.47-.55s-2.25-.84-3.29-1.41-1.99-1.25-2.87-2.01-1.63-1.54-2.24-2.33c-1.09 1.28-2.33 2.31-3.7 3.1s-2.74 1.43-4.11 1.92-2.69.82-3.97 1-2.4.27-3.38.27h-12.23c-1.28 0-1.92-.33-1.92-1zm33.31 9.68v10.68h-12.96v-10.68h12.96z"></path><path d="M458.07 614.92c-2.28-1.12-3.76-2.57-4.43-4.33h-.37c-1.4 2.07-3.22 3.59-5.48 4.56s-5.08 1.46-8.49 1.46-6.07-.56-8.35-1.69c-2.28-1.12-3.76-2.57-4.43-4.33h-.37c-.06.37-.35.87-.87 1.51s-1.19 1.28-2.01 1.92-1.76 1.19-2.83 1.64-2.17.68-3.33.68h-12.87c-1.28 0-1.92-.33-1.92-1v-8.49c0-.61.2-.97.59-1.1a4.58 4.58 0 0 1 1.32-.18h6.02c1.58 0 2.83-.49 3.74-1.46s1.37-2.62 1.37-4.93v-18.07h12.96v18.53c0 2.31.68 3.96 2.05 4.93s3.18 1.46 5.43 1.46 3.92-.49 5.02-1.46c1.09-.97 1.64-2.62 1.64-4.93v-20.26h12.96v20.26c0 2.31.68 3.96 2.05 4.93s3.18 1.46 5.43 1.46 3.92-.49 5.02-1.46 1.64-2.62 1.64-4.93v-22.18h12.96v21.72c0 2.31.46 3.95 1.37 4.93.91.97 2.16 1.46 3.74 1.46h6.66c.49 0 .93.06 1.32.18.4.12.59.49.59 1.1v8.49c0 .67-.64 1-1.92 1h-4.2c-.85 0-1.75-.14-2.69-.41a13.02 13.02 0 0 1-2.74-1.14 10.66 10.66 0 0 1-2.37-1.78c-.7-.7-1.23-1.51-1.6-2.42h-.37c-1.4 2.07-3.22 3.59-5.48 4.56s-5.08 1.46-8.49 1.46-6.07-.56-8.35-1.69zm-12.19-63.84v10.4h-10.4v-10.4h10.4zm7.85-14.05v10.4h-10.5v-10.4h10.5zm7.76 14.05v10.4h-10.5v-10.4h10.5z"></path><path d="M506.66 551.08h12.96v65.25h-25.37c-1.28 0-1.92-.33-1.92-1v-8.49c0-.61.2-.97.59-1.1a4.58 4.58 0 0 1 1.32-.18h12.41v-54.48zm23.91 0h12.96v65.25h-12.96v-65.25zm78.07 54.67c.4.12.59.49.59 1.1v8.49c0 .67-.64 1-1.92 1h-1.92c-.85 0-1.75-.14-2.69-.41a13.02 13.02 0 0 1-2.74-1.14 9.79 9.79 0 0 1-2.33-1.78c-.67-.7-1.19-1.51-1.55-2.42h-.37v4.29c0 3.47-.29 6.62-.87 9.45s-1.52 5.26-2.83 7.3-3.06 3.62-5.25 4.75-4.93 1.69-8.21 1.69c-1.4 0-2.81-.12-4.24-.37s-2.72-.61-3.88-1.09v-9.4a6.12 6.12 0 0 0 2.37.96c.85.15 1.79.23 2.83.23 2.62 0 4.44-1.11 5.48-3.33 1.03-2.22 1.55-5.61 1.55-10.18v-37.42h13.05v20.62c0 1.58.29 2.86.87 3.83s1.34 1.73 2.28 2.28 1.99.91 3.15 1.09a21.97 21.97 0 0 0 3.38.27h1.92c.49 0 .93.06 1.32.18z"></path><path d="M605.31 615.33v-8.49c0-.61.2-.97.59-1.1a4.58 4.58 0 0 1 1.32-.18h9.22v-.37c-1.4-1.28-2.6-2.94-3.6-4.97-1-2.04-1.51-4.12-1.51-6.25 0-3.65.59-6.86 1.78-9.63s2.84-5.11 4.97-7.03 4.64-3.36 7.53-4.33 6.04-1.46 9.45-1.46 6.57.46 9.49 1.37 5.46 2.31 7.62 4.2 3.86 4.23 5.11 7.03 1.87 6.08 1.87 9.86-.62 7.06-1.87 9.86-2.95 5.13-5.11 6.98-4.7 3.24-7.62 4.15-6.08 1.37-9.49 1.37h-27.83c-1.28 0-1.92-.33-1.92-1zm21.81-12.59c1.76 2.25 4.41 3.38 7.94 3.38 1.76 0 3.3-.32 4.61-.96a9.67 9.67 0 0 0 3.29-2.6c.88-1.1 1.55-2.37 2.01-3.83s.68-3.04.68-4.75-.23-3.3-.68-4.79c-.46-1.49-1.12-2.8-2.01-3.92-.88-1.12-1.98-2.01-3.29-2.65s-2.84-.96-4.61-.96-3.3.32-4.61.96-2.4 1.52-3.29 2.65c-.88 1.13-1.55 2.43-2.01 3.92s-.68 3.09-.68 4.79c0 3.59.88 6.51 2.65 8.76zm41.16-51.66h12.96v65.25h-12.96v-65.25zm48.59 74.38c2.59-1.95 4.18-4.99 4.79-9.13h-11.32c-3.04 0-5.79-.49-8.26-1.46s-4.56-2.36-6.3-4.15c-1.73-1.79-3.07-3.99-4.02-6.57-.94-2.59-1.42-5.49-1.42-8.72a33.09 33.09 0 0 1 1.19-8.85c.79-2.86 2.08-5.42 3.88-7.67s4.14-4.05 7.03-5.38c2.89-1.34 6.4-2.01 10.54-2.01s7.64.64 10.5 1.92 5.19 3.1 6.98 5.48 3.09 5.26 3.88 8.67 1.19 7.27 1.19 11.59c0 6.94-.53 12.87-1.6 17.8-1.06 4.93-2.74 8.94-5.02 12.05s-5.22 5.38-8.81 6.84-7.94 2.19-13.05 2.19c-1.28 0-2.43-.06-3.47-.18s-1.92-.27-2.65-.46c-.85-.24-1.61-.49-2.28-.73v-9.76c1.22.49 2.37.85 3.47 1.09 1.09.24 2.28.37 3.56.37 4.87 0 8.59-.97 11.18-2.92zm-13.14-25.73c.27 1.28.78 2.36 1.51 3.24s1.72 1.54 2.97 1.96 2.84.64 4.79.64h9.67v-6.75c0-2.68-.15-5.08-.46-7.21-.3-2.13-.82-3.92-1.55-5.38s-1.72-2.58-2.97-3.38c-1.25-.79-2.81-1.19-4.7-1.19s-3.35.38-4.56 1.14-2.21 1.78-2.97 3.06-1.31 2.74-1.64 4.38-.5 3.32-.5 5.02.14 3.19.41 4.47zm41.84-59.14v-.27a7.05 7.05 0 0 1-.91-1.64c-.24-.6-.37-1.25-.37-1.92 0-2.13.71-3.77 2.15-4.93 1.43-1.16 3.3-1.73 5.61-1.73a9.81 9.81 0 0 1 2.69.37 7.04 7.04 0 0 1 2.37 1.14c.7.52 1.28 1.19 1.73 2.01s.71 1.81.78 2.97h-4.93c-.06-.85-.33-1.49-.82-1.92s-1.09-.64-1.83-.64c-.67 0-1.25.27-1.73.82-.49.55-.73 1.34-.73 2.37 0 2.07.85 3.19 2.55 3.38h7.67v4.2h-17.16v-4.2h2.92zm-.91 10.49h12.96v65.25h-12.96v-65.25zM391.53 664.61c-.44-3.5-1.93-5.33-4.62-5.56-2.68-.23-4.32 1.06-5.38 4.44l-4.03 13.32-4.77 15.66c-1.04-.46-1.01-1.18-1.2-1.8l-7.76-25.55c-1.48-4.86-2.91-6.34-5.87-6.09-2.99.25-4.25 2.25-4.86 7.27l-4.22 33.88c-.11.87-1.2 2.72.95 2.33 1.6-.29 4.39 1.99 4.78-1.9.64-6.51 1.5-13 2.29-19.49l1.58-12.45c1.07.65 1.1 1.48 1.32 2.17l5.25 17.11 3.68 11.65c.56 1.74 1.57 3.02 3.63 3.04 2.17.02 3.25-1.25 3.86-3.13l.62-1.89 8.41-27.13c.18-.59.06-1.38.96-1.54.57.24.43.77.48 1.19l3.56 29.94c.1.86-.27 2.22.92 2.43 1.47.25 3.19.45 4.48-.1 1.25-.53.45-2.21.31-3.34l-4.37-34.43zm-83.55-4.84c-2.04.01-2.97.28-2.93 2.72.17 9.1.11 18.21.05 27.32-.04 5.75-3.5 8.83-9.09 8.28-4.39-.43-6.81-3.4-6.83-8.56l.06-27.32c.05-2.54-1.18-2.36-2.9-2.42-1.89-.07-2.9.13-2.82 2.52.2 5.97.08 11.95.06 17.93 0 3.7.13 7.41-.14 11.09-.32 4.37-3.38 6.85-7.92 6.81-4.39-.03-7.22-2.49-7.71-6.74-.13-1.13-.12-2.27-.12-3.41l.05-26.18c.03-2.07-1.04-2.22-2.45-1.94-1.2.24-3.31-1.19-3.3 1.63l.11 29.31c.15 5.59 2.98 9.84 8.45 11.64 5.29 1.74 10.37 1.21 14.43-3.06 1.17-1.23 1.62-1.17 2.78 0 4.28 4.37 9.5 4.81 14.98 2.88 4.93-1.74 7.83-6.33 7.91-12.03l.01-13.66h.01c0-4.74-.14-9.49.06-14.23.09-2.28-.76-2.62-2.76-2.61zm358.7 21.3c-1.31-.99-1.79-1.39-.37-2.87 3.94-4.1 3.72-11.67-.53-15.44-4.68-4.14-10.24-4.75-16-2.68-5.05 1.81-8.21 6.79-8.26 12.49v13.38c0 4.74.17 9.49-.07 14.23-.12 2.46 1 2.53 2.83 2.47 1.7-.05 2.97.16 2.91-2.4-.18-9.1-.11-18.21-.06-27.32.03-6.49 4.88-10.09 11.1-8.35 3.46.97 5.5 3.73 5.26 7.14-.22 3.04-2.52 5.43-5.98 5.86-2.06.26-4.17.28-6.25.21-2.38-.08-1.59 1.62-1.63 2.76-.04 1.09-.59 2.59 1.58 2.49 2.27-.11 4.56-.14 6.83.04 4.85.39 7.37 3 7.32 7.34-.05 4.27-2.42 6.58-7.35 6.93-2.27.16-4.56.15-6.83.04-1.9-.1-1.72 1.16-1.54 2.22.19 1.06-1.09 2.99 1.34 2.98 3.41-.01 6.85.35 10.23-.3 4.79-.91 8.19-3.65 9.36-8.45 1.19-4.91.45-9.5-3.9-12.78zm-158.64-4.94c0-1.61-.11-3.23-.38-4.81-1.88-11.14-14.61-16.14-23.43-9.2-4.14 3.26-5.51 7.87-5.59 12.86l-.09 25.61c-.05 2.94 1.93 1.81 3.28 2.01 1.64.23 2.59-.06 2.49-2.19-.2-4.35-.06-8.72-.06-13.09v-7.11c.02-2.37-.08-4.76.14-7.11.68-7.35 7.58-11.26 13.51-7.65 3.78 2.3 4.41 6.11 4.51 10.15.04 1.76-.6 2.3-2.31 2.25-3.7-.1-7.41.13-11.1-.09-2.34-.14-2.25 1.05-2.32 2.73-.08 1.89.31 2.69 2.43 2.57 3.31-.19 6.66.16 9.96-.11 2.87-.23 3.5.84 3.37 3.5-.22 4.45.05 8.92-.11 13.37-.08 2.16.41 2.91 2.74 2.88 2.27-.03 3.09-.47 3.03-2.94-.17-7.87-.04-15.75-.08-23.62zm264.52-3.97c-.58-6.99-5.55-12-12.01-12.93-9.65-1.38-16.87 5.02-17.09 15.47-.19 8.63.06 17.27-.1 25.9-.05 2.7 1.62 1.93 2.97 1.99 1.49.07 2.98.43 2.84-2.13-.23-4.35-.06-8.72-.06-13.09h.12c0-4.84-.28-9.69.07-14.51.5-6.79 6.76-10.6 12.63-7.85 4.28 2.01 5.16 5.94 5.3 10.23.06 1.93-.45 2.7-2.51 2.61-3.79-.15-7.59.05-11.39-.08-2.33-.08-1.69 1.49-1.72 2.68-.03 1.24-.49 2.68 1.79 2.58 3.69-.16 7.41.07 11.1-.09 2.08-.09 2.81.46 2.74 2.66-.17 5.12.02 10.25-.09 15.37-.04 1.87 1.12 1.8 2.19 1.57 1.22-.27 3.49 1.21 3.48-1.38-.02-9.67.54-19.37-.27-29.02zm-68.83-.35c-1.24-8.64-8.23-13.82-16.85-12.57-7.36 1.07-12.04 6.91-12.23 15.78-.19 8.53.03 17.07-.09 25.6-.04 2.97 1.97 1.77 3.3 1.97 1.58.23 2.61.04 2.51-2.15-.21-4.35-.06-8.72-.06-13.08h.04c0-4.65-.2-9.3.05-13.93.41-7.51 7.4-11.62 13.47-8.01 3.7 2.2 4.42 5.87 4.56 9.82.07 1.93-.46 2.71-2.52 2.63-3.69-.15-7.4.08-11.09-.09-2.1-.1-2.07 1.04-1.96 2.45.1 1.27-.64 2.94 1.87 2.82 3.5-.16 7.03.11 10.52-.09 2.43-.14 3.34.45 3.21 3.08-.23 4.82-.09 9.67-.04 14.5 0 .73-.5 1.68.82 2.06 3.27.94 4.82-.14 4.82-3.51l-.01-22.75c0-1.51-.09-3.04-.3-4.53zm-367.69-11.97c-9.68-3.34-19.05 3.24-19.48 13.72-.18 4.45-.03 8.92-.03 13.38h-.03c0 4.36.14 8.73-.06 13.09-.1 2.22.64 2.71 2.71 2.65 1.96-.06 3.01-.16 2.96-2.68-.19-8.44-.12-16.89-.05-25.33.04-5.12 2.29-8.65 6.11-9.95 6.79-2.31 12.42 2.91 12.03 11.04-.08 1.64-.69 2.12-2.22 2.09-3.89-.06-7.79.08-11.67-.06-2.33-.08-1.7 1.45-1.72 2.64-.02 1.23-.52 2.71 1.76 2.62 3.7-.14 7.41.07 11.1-.08 2.09-.09 2.83.5 2.76 2.69-.16 5.02.03 10.06-.09 15.08-.05 1.89.97 2.14 2.28 1.82 1.2-.29 3.43 1.26 3.45-1.37.06-9.3.24-18.61-.16-27.89-.27-6.3-3.3-11.27-9.64-13.46zm299.23 33.28c-.15-7.01.57-14.06-.36-21.04-1.12-8.39-7.36-13.56-15.18-13.05-8.04.53-13.58 6.46-13.79 14.9-.1 4.27-.02 8.54-.02 12.81h-.01c0 4.36.13 8.73-.05 13.09-.09 2.23.55 2.88 2.8 2.85 2.15-.03 2.89-.48 2.85-2.8-.15-8.44-.14-16.89-.03-25.33.09-7.56 5.6-11.99 12.05-9.84 4.03 1.34 6.17 5.3 6.07 10.83-.03 1.72-.57 2.34-2.31 2.3-3.79-.1-7.6.1-11.39-.08-2.15-.1-2 1.11-1.92 2.47.08 1.29-.62 2.93 1.88 2.8 3.5-.17 7.03.1 10.53-.09 2.42-.13 3.35.46 3.23 3.09-.23 4.73-.08 9.48-.05 14.23 0 .71-.41 1.78.41 2.08 1.52.56 3.23.48 4.76.09 1.16-.3.49-1.64.52-2.5.09-2.27.07-4.55.02-6.83zm-378.94-19.41c-.23-6.42-3.14-11.53-9.57-13.83-9.77-3.49-19.17 3.13-19.62 13.82-.19 4.45-.03 8.92-.03 13.37h-.03c0 4.46.16 8.93-.06 13.37-.13 2.54 1.36 2.14 2.85 2.16 1.54.02 2.89.31 2.83-2.19-.18-7.68-.05-15.37-.07-23.05 0-2.19-.01-4.37.57-6.5 1.2-4.4 4.88-7.01 9.35-6.65 5.23.43 8.43 4.88 8.32 11.35-.03 1.77-.68 2.3-2.35 2.27-3.79-.08-7.6.1-11.39-.07-2.14-.1-2.01 1.08-1.93 2.47.08 1.3-.58 2.92 1.9 2.81 3.69-.17 7.41.08 11.1-.09 2.19-.1 2.73.7 2.68 2.77-.14 5.02.05 10.06-.09 15.08-.06 2.29 1.42 1.9 2.62 1.74 1.11-.15 3.07 1.12 3.06-1.52-.04-9.11.2-18.22-.13-27.32zm202.41 15.47c-.05-3.22-1.1-6-4.12-7.58-1.38-.72-.96-1.13-.09-1.98 6.01-5.88 4.32-15.56-3.3-19.2-10-4.77-20.28 1.68-20.61 13-.13 4.36-.02 8.73-.02 13.09l.02 13.94c0 .69-.46 1.82.47 1.99 1.47.25 3.09.36 4.51 0 1.29-.33.61-1.81.62-2.75l.06-26.75c.07-6.39 5.42-10.24 11.22-8.24 3.22 1.12 5.04 3.61 4.98 6.83-.06 3.27-1.92 5.54-5.28 6.57-2.14.65-4.32.64-6.49.51-2.09-.12-1.76 1.26-1.66 2.42.09 1.11-.82 2.86 1.59 2.77 1.99-.07 3.99-.06 5.97.12 4.44.4 6.62 2.81 6.68 7.26.04 3.22.12 6.46-.03 9.67-.11 2.33 1.47 1.78 2.64 1.72 1.19-.06 3.02.87 2.93-1.72-.13-3.89 0-7.78-.07-11.67zm140.76-7.82l.06-19.35c.07-2.47-1.29-2.19-2.83-2.18-1.53 0-2.95-.3-2.84 2.18.2 4.45-.01 8.91.09 13.37.04 1.82-.47 2.53-2.39 2.48-4.74-.11-9.49-.13-14.23 0-2.08.06-2.55-.74-2.5-2.64.11-4.55-.04-9.11.07-13.66.06-2.61-1.79-1.62-2.96-1.68-1.14-.06-2.68-.7-2.67 1.66v39.27c-.01 2.82 1.95 1.6 3.17 1.77 1.31.18 2.55.31 2.47-1.87-.17-5.12.02-10.24-.1-15.36-.05-1.91.63-2.41 2.44-2.37 4.74.11 9.49.1 14.23 0 1.83-.04 2.5.52 2.46 2.42-.11 5.02.11 10.06-.1 15.08-.11 2.56 1.39 2.11 2.87 2.15 1.56.04 2.89.28 2.81-2.2-.19-6.35-.06-12.71-.06-19.06zm137.56-21.54c-2.48-.44-3.76.62-4.61 2.92-1.12 3.01-2.7 5.84-3.87 8.83-1.8 4.58-5.01 6.56-9.93 6.32-2.06-.1-2.53-.78-2.48-2.67.11-4.45-.11-8.92.1-13.36.11-2.41-1.29-2.04-2.68-2.02-1.43.02-2.94-.51-2.92 2.08v38.68c-.02 2.67 1.64 1.91 2.99 2 1.47.1 2.71.25 2.61-2.07-.21-4.92.07-9.86-.12-14.78-.09-2.37.75-2.95 2.91-2.77 1.98.16 3.98-.02 5.97.05 4.72.15 7.34 2.76 7.44 7.51.08 3.41.13 6.83-.03 10.24-.09 1.92.94 2.08 2.24 1.8 1.19-.26 3.32 1.2 3.29-1.63-.04-4.08.11-8.16-.09-12.23-.21-4.09-2.17-7.18-6.04-8.9-.64-.29-1.48-.31-1.84-1.12 4.99-5.35 6.6-12.45 10.3-18.86-1.38 0-2.33.13-3.23-.03zm-322.56 6.13c2.73-.94 5.57-1.09 8.42-1.15.66-.01 1.47.35 1.8-.81.8-2.79-.13-4.16-3.03-4.15-1.23 0-2.47-.02-3.7.07-14.42.99-23.65 15.14-18.75 28.71 3.25 9 11.51 14 22.84 14.04 2.07 0 2.78-.41 2.73-2.62-.05-2.05-.44-2.99-2.66-2.65-1.11.17-2.27.06-3.41.02-6.54-.24-12.69-5.16-14.44-11.41-.58-2.06-.51-3.25 2.18-3.03 2.55.21 5.12.04 7.68.04 2.85 0 5.71-.18 8.54.05 2.4.2 2.02-1.24 2.03-2.65.02-1.46.25-2.73-2.07-2.65-5.31.19-10.63.07-15.94.06-3.01 0-3.35-.52-1.99-3.28 2.06-4.2 5.36-7.06 9.78-8.59zm141.4 14.36c-3.21-1.81-6.64-3.23-9.86-5.03-3.44-1.93-4.44-4.06-3.61-6.88.95-3.25 3.61-3.54 6.35-3.57l11.38.02c1.69.05 1.97-.82 1.72-2.09-.21-1.07.99-2.93-1.42-2.92-4.84.02-9.69-.21-14.5.17-4.37.34-7.67 2.66-8.96 7.13-1.33 4.59-.06 8.38 3.64 11.4 2.3 1.88 4.9 3.22 7.6 4.39 2.61 1.13 5.2 2.33 7.44 4.11 2.67 2.13 3.4 5.32 1.82 7.81-1.4 2.21-3.71 2.5-6 2.54-4.46.08-8.92.14-13.37-.02-2.19-.08-1.9 1.21-1.88 2.52.02 1.35-.49 2.94 1.94 2.76 2.36-.18 4.74-.04 7.11-.04v-.23c3.12 0 6.28.27 9.37-.06 5.11-.55 8.27-4.07 9.01-9.13.95-6.49-2.82-10.08-7.78-12.88zm-24.2 17.08c-1.21.18-2.47.09-3.69 0-4.37-.34-6.98-2.72-7.62-7.05-.22-1.49-.2-3.03-.21-4.54l.05-23.89c.05-2.35-1.22-2.09-2.66-2.06-1.46.03-3-.44-2.89 2.12.2 4.73.06 9.48.06 14.22l.02 13.65c.11 6.97 4.54 11.84 11.43 12.57 2.07.22 4.17.04 6.24.24 1.86.18 2.1-.63 2.19-2.27.13-2.31-.47-3.34-2.92-2.98z"></path></g></g></svg>